<!DOCTYPE svg PUBLIC "-//W3C//DTD SVG 1.1//EN" "http://www.w3.org/Graphics/SVG/1.1/DTD/svg11.dtd">
<!-- Uploaded to: SVG Repo, www.svgrepo.com, Transformed by: SVG Repo Mixer Tools -->
<svg width="800px" height="800px" viewBox="0 0 1024 1024" xmlns="http://www.w3.org/2000/svg" fill="#ffffff">
<g id="SVGRepo_bgCarrier" stroke-width="0"/>
<g id="SVGRepo_tracerCarrier" stroke-linecap="round" stroke-linejoin="round"/>
<g id="SVGRepo_iconCarrier">
<path fill="#FFFF" d="M512 704a192 192 0 1 0 0-384 192 192 0 0 0 0 384zm0 64a256 256 0 1 1 0-512 256 256 0 0 1 0 512zm0-704a32 32 0 0 1 32 32v64a32 32 0 0 1-64 0V96a32 32 0 0 1 32-32zm0 768a32 32 0 0 1 32 32v64a32 32 0 1 1-64 0v-64a32 32 0 0 1 32-32zM195.2 195.2a32 32 0 0 1 45.248 0l45.248 45.248a32 32 0 1 1-45.248 45.248L195.2 240.448a32 32 0 0 1 0-45.248zm543.104 543.104a32 32 0 0 1 45.248 0l45.248 45.248a32 32 0 0 1-45.248 45.248l-45.248-45.248a32 32 0 0 1 0-45.248zM64 512a32 32 0 0 1 32-32h64a32 32 0 0 1 0 64H96a32 32 0 0 1-32-32zm768 0a32 32 0 0 1 32-32h64a32 32 0 1 1 0 64h-64a32 32 0 0 1-32-32zM195.2 828.8a32 32 0 0 1 0-45.248l45.248-45.248a32 32 0 0 1 45.248 45.248L240.448 828.8a32 32 0 0 1-45.248 0zm543.104-543.104a32 32 0 0 1 0-45.248l45.248-45.248a32 32 0 0 1 45.248 45.248l-45.248 45.248a32 32 0 0 1-45.248 0z"/>
</g>
</svg>