<!DOCTYPE svg PUBLIC "-//W3C//DTD SVG 1.1//EN" "http://www.w3.org/Graphics/SVG/1.1/DTD/svg11.dtd">
<!-- Uploaded to: SVG Repo, www.svgrepo.com, Transformed by: SVG Repo Mixer Tools -->
<svg fill="#ffffff" width="800px" height="800px" viewBox="0 0 24 24" xmlns="http://www.w3.org/2000/svg">
<g id="SVGRepo_bgCarrier" stroke-width="0"/>
<g id="SVGRepo_tracerCarrier" stroke-linecap="round" stroke-linejoin="round"/>
<g id="SVGRepo_iconCarrier">
<path d="M11.421,3.707,3.707,11.421a1,1,0,0,1-1.414-1.414l7.714-7.714a1,1,0,0,1,1.414,1.414Zm7.715,1.157a1,1,0,0,0-1.414,0l-7.715,7.715a1,1,0,1,0,1.414,1.414l7.715-7.715A1,1,0,0,0,19.136,4.864Zm1.157,7.715-7.714,7.714a1,1,0,1,0,1.414,1.414l7.714-7.714a1,1,0,0,0-1.414-1.414Z"/>
</g>
</svg>