<!DOCTYPE svg PUBLIC "-//W3C//DTD SVG 1.1//EN" "http://www.w3.org/Graphics/SVG/1.1/DTD/svg11.dtd">
<!-- Uploaded to: SVG Repo, www.svgrepo.com, Transformed by: SVG Repo Mixer Tools -->
<svg version="1.1" id="_x32_" xmlns="http://www.w3.org/2000/svg" xmlns:xlink="http://www.w3.org/1999/xlink" width="800px" height="800px" viewBox="0 0 512 512" xml:space="preserve" fill="#ffffff">
<g id="SVGRepo_bgCarrier" stroke-width="0"/>
<g id="SVGRepo_tracerCarrier" stroke-linecap="round" stroke-linejoin="round"/>
<g id="SVGRepo_iconCarrier"> <style type="text/css">  .st0{fill:#FFFF;}  </style> <g> <path class="st0" d="M471.891,129.984c-19.453-19.938-45.203-33.797-73.906-38.797c-8.734-23.547-23.516-44.125-42.563-59.703 C331.406,11.844,300.484-0.016,267.063,0c-33.797-0.016-65.016,12.063-89.141,32.094c-18.109,15-32.375,34.5-41.094,56.828 c-37.234,0.172-71.156,15.391-95.563,39.813c-24.563,24.531-39.844,58.719-39.828,96.203 c-0.016,37.469,15.266,71.656,39.828,96.188c17.828,17.844,40.766,30.688,66.313,36.438l43.906-50.234c-5.141,0-9.875,0-14.016,0 c-22.844-0.016-43.266-9.172-58.266-24.141c-14.953-14.984-24.125-35.406-24.141-58.25c0.016-22.844,9.188-43.281,24.141-58.281 c15-14.938,35.422-24.109,58.266-24.125c4.578,0,9.281,0.484,14.219,1.328l25.766,4.516l5.141-25.656 c3.938-19.656,14.609-36.938,29.547-49.328c14.969-12.375,33.938-19.75,54.922-19.766c20.734,0.016,39.516,7.234,54.422,19.391 c14.859,12.156,25.578,29.156,29.75,48.5l4.438,20.594l21.063,0.563c22.313,0.594,42.234,9.938,56.797,24.797 c14.516,14.922,23.391,35,23.406,57.469c-0.016,22.844-9.188,43.266-24.141,58.25c-14.984,14.969-35.422,24.125-58.25,24.141 c-3.328,0-7.031,0-11.031,0l-53.969,53.641c26.297,0,49.563,0,65,0c37.469,0.016,71.656-15.281,96.172-39.844 c24.578-24.531,39.859-58.703,39.844-96.188C510.578,188.063,495.781,154.391,471.891,129.984z"/> <polygon class="st0" points="332.219,299.422 251.125,299.422 288.578,195.719 134.516,372.016 177.078,374.609 118.328,512 "/> </g> </g>
</svg>